<svg width="465" height="348" viewBox="0 0 465 348" fill="none" xmlns="http://www.w3.org/2000/svg">
<path d="M464.924 305.875H0.0742188V306.107H464.924V305.875Z" fill="#EBEBEB"/>
<path d="M414.033 316.52H366.711V316.752H414.033V316.52Z" fill="#EBEBEB"/>
<path d="M92.7388 313.77H48.8477V314.002H92.7388V313.77Z" fill="#EBEBEB"/>
<path d="M370.095 312.207H352.254V312.439H370.095V312.207Z" fill="#EBEBEB"/>
<path d="M308.008 318.371H294.918V318.604H308.008V318.371Z" fill="#EBEBEB"/>
<path d="M286.636 318.371H253.688V318.604H286.636V318.371Z" fill="#EBEBEB"/>
<path d="M234.554 314.449H181.57V314.682H234.554V314.449Z" fill="#EBEBEB"/>
<path d="M220.413 264.411H40.8969C39.4906 264.409 38.1428 263.848 37.1492 262.853C36.1557 261.858 35.5977 260.509 35.5977 259.103V6.75429C35.6099 5.35604 36.1733 4.01909 37.1655 3.03383C38.1578 2.04857 39.4986 1.49458 40.8969 1.49219H220.413C221.82 1.49219 223.171 2.05148 224.166 3.04704C225.162 4.04259 225.721 5.39285 225.721 6.80077V259.103C225.721 260.51 225.162 261.861 224.166 262.856C223.171 263.852 221.82 264.411 220.413 264.411ZM40.8969 1.67813C39.5523 1.68059 38.2635 2.21648 37.3136 3.16818C36.3636 4.11988 35.8301 5.40961 35.8301 6.75429V259.103C35.8301 260.447 36.3636 261.737 37.3136 262.689C38.2635 263.64 39.5523 264.176 40.8969 264.179H220.413C221.758 264.176 223.048 263.641 223.999 262.689C224.951 261.738 225.486 260.448 225.489 259.103V6.75429C225.486 5.40876 224.951 4.11905 223.999 3.16761C223.048 2.21618 221.758 1.68059 220.413 1.67813H40.8969Z" fill="#EBEBEB"/>
<path d="M421.517 264.411H241.992C240.585 264.409 239.236 263.849 238.241 262.854C237.246 261.859 236.686 260.51 236.684 259.103V6.75429C236.698 5.35519 237.264 4.01825 238.257 3.03325C239.251 2.04825 240.593 1.49456 241.992 1.49219H421.517C422.914 1.49703 424.252 2.0521 425.243 3.03709C426.233 4.02209 426.795 5.35765 426.807 6.75429V259.103C426.807 260.507 426.25 261.855 425.259 262.85C424.267 263.845 422.922 264.406 421.517 264.411ZM241.992 1.67813C240.647 1.68059 239.357 2.21618 238.406 3.16761C237.454 4.11905 236.918 5.40876 236.916 6.75429V259.103C236.918 260.448 237.454 261.738 238.406 262.689C239.357 263.641 240.647 264.176 241.992 264.179H421.517C422.863 264.176 424.152 263.641 425.104 262.689C426.055 261.738 426.591 260.448 426.593 259.103V6.75429C426.591 5.40876 426.055 4.11905 425.104 3.16761C424.152 2.21618 422.863 1.68059 421.517 1.67813H241.992Z" fill="#EBEBEB"/>
<path d="M208.784 32.1914H54.4727V228.562H208.784V32.1914Z" fill="#E6E6E6"/>
<path d="M206.858 32.1914H52.5469V228.562H206.858V32.1914Z" fill="#FAFAFA"/>
<path d="M202.543 224.25V36.5156L56.8684 36.5156V224.25H202.543Z" fill="white"/>
<path d="M129.703 206.902C140.578 206.902 149.394 198.086 149.394 187.211C149.394 176.336 140.578 167.52 129.703 167.52C118.828 167.52 110.012 176.336 110.012 187.211C110.012 198.086 118.828 206.902 129.703 206.902Z" fill="#FAFAFA"/>
<path d="M150.575 130.377C150.575 133.965 147.414 136.736 145.741 139.674C144.067 142.611 143.137 146.767 140.162 148.496C137.187 150.226 133.31 148.924 129.722 148.924C126.133 148.924 122.182 150.17 119.281 148.496C116.381 146.823 115.423 142.658 113.703 139.674C111.983 136.689 108.859 134.002 108.859 130.377C108.859 126.751 112.02 124.017 113.703 121.126C115.386 118.235 116.306 114.032 119.281 112.303C122.256 110.574 126.124 111.866 129.713 111.866C133.301 111.866 137.262 110.63 140.153 112.303C143.044 113.977 144.021 118.132 145.731 121.126C147.442 124.12 150.575 126.797 150.575 130.377Z" fill="#EBEBEB"/>
<path d="M152.377 73.5441L145.599 78.7132L148.044 86.876L139.528 87.0712L136.711 95.1224L129.701 90.2601L122.701 95.1224L119.884 87.0712L111.358 86.876L113.803 78.7132L107.035 73.5441L113.803 68.3843L111.358 60.2215L119.884 60.0263L122.701 51.9844L129.701 56.8374L136.711 51.9844L139.528 60.0263L148.044 60.2215L145.599 68.3843L152.377 73.5441Z" fill="#E0E0E0"/>
<path d="M387.674 302.438H406.035V227.652H387.674V302.438Z" fill="#F0F0F0"/>
<path d="M249.743 305.875H401.191V302.435H249.743V305.875Z" fill="#F0F0F0"/>
<path d="M387.676 227.652H244.902V302.437H387.676V227.652Z" fill="#F5F5F5"/>
<path d="M377.745 254.676H254.82V272.47H377.745V254.676Z" fill="#F0F0F0"/>
<path d="M377.745 277.965H254.82V295.759H377.745V277.965Z" fill="#F0F0F0"/>
<path d="M280.145 255.895H352.438C353.085 255.895 353.609 255.37 353.609 254.723V254.63C353.609 253.983 353.085 253.459 352.438 253.459H280.145C279.498 253.459 278.973 253.983 278.973 254.63V254.723C278.973 255.37 279.498 255.895 280.145 255.895Z" fill="#F5F5F5"/>
<path d="M280.145 279.184H352.438C353.085 279.184 353.609 278.659 353.609 278.012V277.919C353.609 277.272 353.085 276.748 352.438 276.748H280.145C279.498 276.748 278.973 277.272 278.973 277.919V278.012C278.973 278.659 279.498 279.184 280.145 279.184Z" fill="#F5F5F5"/>
<path d="M377.745 231.387H254.82V249.181H377.745V231.387Z" fill="#F0F0F0"/>
<path d="M280.145 232.617H352.438C353.085 232.617 353.609 232.093 353.609 231.446V231.353C353.609 230.706 353.085 230.181 352.438 230.181H280.145C279.498 230.181 278.973 230.706 278.973 231.353V231.446C278.973 232.093 279.498 232.617 280.145 232.617Z" fill="#F5F5F5"/>
<path d="M386.861 34.9276C393.291 28.4977 393.291 18.0726 386.861 11.6427C380.431 5.21268 370.006 5.21267 363.576 11.6426C357.146 18.0726 357.146 28.4977 363.576 34.9277C370.006 41.3576 380.431 41.3576 386.861 34.9276Z" fill="#F5F5F5"/>
<path d="M381.085 31.8681C385.823 27.13 385.823 19.4481 381.085 14.71C376.347 9.97197 368.665 9.97198 363.927 14.71C359.189 19.4481 359.189 27.13 363.927 31.8681C368.665 36.6062 376.347 36.6062 381.085 31.8681Z" fill="#EBEBEB"/>
<path d="M372.223 23.2854C372.223 23.7212 372.094 24.1472 371.852 24.5096C371.61 24.8719 371.266 25.1543 370.863 25.3211C370.46 25.4879 370.017 25.5315 369.59 25.4465C369.163 25.3614 368.77 25.1516 368.462 24.8435C368.154 24.5353 367.944 24.1427 367.859 23.7153C367.774 23.2879 367.817 22.8448 367.984 22.4422C368.151 22.0396 368.433 21.6955 368.796 21.4534C369.158 21.2113 369.584 21.082 370.02 21.082C370.604 21.082 371.165 21.3142 371.578 21.7274C371.991 22.1406 372.223 22.701 372.223 23.2854Z" fill="white"/>
<path d="M380.053 43.6443C378.328 43.6494 376.607 43.4687 374.921 43.1051C374.612 43.0152 374.35 42.8096 374.19 42.5312C374.029 42.2529 373.983 41.9233 374.06 41.6113C374.136 41.2993 374.331 41.0291 374.602 40.857C374.873 40.6849 375.201 40.6243 375.516 40.6879C375.599 40.6879 384.125 42.7053 389.926 38.1405C393.645 35.2306 395.504 30.2288 395.504 23.2653C395.504 22.9349 395.635 22.618 395.869 22.3844C396.103 22.1508 396.42 22.0195 396.75 22.0195C397.08 22.0195 397.397 22.1508 397.631 22.3844C397.865 22.618 397.996 22.9349 397.996 23.2653C397.996 31.019 395.792 36.6809 391.441 40.0836C388.148 42.5073 384.14 43.7606 380.053 43.6443Z" fill="#EBEBEB"/>
<path d="M395.688 25.2753C395.077 25.2753 394.491 25.0324 394.058 24.6C393.626 24.1676 393.383 23.5812 393.383 22.9697V18.6094C393.383 17.993 393.628 17.4018 394.064 16.9659C394.499 16.53 395.091 16.2852 395.707 16.2852C396.323 16.2852 396.915 16.53 397.351 16.9659C397.786 17.4018 398.031 17.993 398.031 18.6094V22.9697C398.03 23.2753 397.968 23.5776 397.85 23.8592C397.731 24.1408 397.558 24.3962 397.34 24.6105C397.122 24.8249 396.864 24.994 396.581 25.1081C396.297 25.2222 395.994 25.279 395.688 25.2753Z" fill="#EBEBEB"/>
<path d="M232.498 347.861C332.052 347.861 412.757 343.149 412.757 337.337C412.757 331.524 332.052 326.812 232.498 326.812C132.943 326.812 52.2383 331.524 52.2383 337.337C52.2383 343.149 132.943 347.861 232.498 347.861Z" fill="#F5F5F5"/>
<path d="M415.083 54.875H235.855V185.433H415.083V54.875Z" fill="#263238"/>
<path d="M283.484 115.063C282.566 115.004 281.671 114.757 280.853 114.338C280.301 114.082 279.725 113.882 279.133 113.743C278.518 113.645 277.895 113.608 277.274 113.631C276.374 113.702 275.47 113.592 274.615 113.306C273.798 112.895 273.071 112.326 272.476 111.632C272.058 111.184 271.601 110.773 271.11 110.405C270.576 110.087 270.016 109.817 269.436 109.596C268.573 109.318 267.775 108.865 267.093 108.267C266.498 107.586 266.046 106.792 265.764 105.933C265.555 105.348 265.284 104.787 264.955 104.26C264.595 103.759 264.184 103.298 263.728 102.884C263.032 102.293 262.465 101.565 262.064 100.745C261.779 99.8929 261.665 98.9924 261.729 98.0958C261.755 97.4741 261.721 96.8514 261.627 96.2364C261.485 95.6468 261.282 95.0735 261.022 94.5257C260.548 93.7285 260.297 92.8179 260.297 91.89C260.297 90.9621 260.548 90.0515 261.022 89.2543C261.281 88.7027 261.483 88.1265 261.627 87.5344C261.722 86.9194 261.756 86.2966 261.729 85.675C261.666 84.7753 261.779 83.872 262.064 83.016C262.468 82.2005 263.034 81.476 263.728 80.887C264.184 80.4725 264.595 80.0114 264.955 79.5111C265.282 78.9827 265.553 78.4219 265.764 77.8376C266.048 76.9767 266.5 76.1805 267.093 75.4948C267.781 74.9049 268.577 74.4535 269.436 74.1653C270.02 73.9543 270.581 73.6832 271.11 73.3565C271.604 72.9999 272.062 72.595 272.476 72.1479C273.076 71.4612 273.802 70.8963 274.615 70.4837C275.47 70.1977 276.374 70.087 277.274 70.1583C277.895 70.1816 278.518 70.1443 279.133 70.0467C279.725 69.9069 280.301 69.7076 280.853 69.4517C281.671 69.0321 282.566 68.7853 283.484 68.7266C284.404 68.7864 285.303 69.0331 286.124 69.4517C286.672 69.7089 287.246 69.9083 287.835 70.0467C288.45 70.1443 289.072 70.1816 289.694 70.1583C290.593 70.087 291.498 70.1977 292.353 70.4837C293.168 70.8939 293.894 71.4592 294.492 72.1479C295.292 73.1002 296.346 73.8062 297.532 74.1839C298.432 74.4041 299.256 74.8673 299.911 75.523C300.567 76.1788 301.03 77.0019 301.25 77.9027C301.461 78.487 301.733 79.0478 302.059 79.5762C302.419 80.0765 302.83 80.5376 303.286 80.9521C303.98 81.5411 304.547 82.2656 304.951 83.0811C305.235 83.937 305.349 84.8404 305.285 85.7401C305.258 86.3617 305.293 86.9845 305.388 87.5995C305.531 88.1916 305.733 88.7678 305.992 89.3194C306.467 90.1166 306.717 91.0272 306.717 91.9551C306.717 92.883 306.467 93.7936 305.992 94.5908C305.732 95.1386 305.529 95.7119 305.388 96.3014C305.294 96.9165 305.259 97.5392 305.285 98.1608C305.349 99.0575 305.236 99.9579 304.951 100.81C304.549 101.63 303.983 102.358 303.286 102.949C302.83 103.363 302.419 103.824 302.059 104.325C301.731 104.852 301.46 105.413 301.25 105.998C301.025 106.891 300.559 107.704 299.903 108.35C299.248 108.996 298.427 109.449 297.532 109.661C296.951 109.882 296.392 110.152 295.858 110.47C295.367 110.838 294.91 111.249 294.492 111.697C293.897 112.391 293.17 112.96 292.353 113.371C291.498 113.657 290.593 113.767 289.694 113.696C289.072 113.673 288.45 113.71 287.835 113.808C287.246 113.946 286.672 114.146 286.124 114.403C285.298 114.799 284.4 115.023 283.484 115.063ZM277.636 113.203C278.168 113.189 278.701 113.227 279.226 113.315C279.847 113.463 280.452 113.675 281.029 113.947C281.769 114.397 282.618 114.635 283.484 114.635C284.35 114.635 285.199 114.397 285.938 113.947C286.516 113.675 287.12 113.463 287.742 113.315C288.394 113.213 289.054 113.175 289.713 113.203C290.549 113.271 291.39 113.17 292.186 112.906C292.944 112.523 293.617 111.992 294.166 111.344C294.601 110.868 295.084 110.438 295.607 110.061C296.162 109.717 296.751 109.43 297.364 109.206C298.165 108.942 298.907 108.525 299.549 107.978C300.102 107.341 300.519 106.597 300.776 105.794C301.005 105.182 301.291 104.594 301.632 104.037C302.012 103.51 302.445 103.024 302.924 102.586C303.569 102.034 304.099 101.362 304.486 100.606C304.746 99.8091 304.844 98.9683 304.774 98.1329C304.749 97.4767 304.789 96.8195 304.895 96.1713C305.041 95.5325 305.249 94.9097 305.518 94.3119C305.968 93.574 306.206 92.7264 306.206 91.8621C306.206 90.9978 305.968 90.1502 305.518 89.4124C305.251 88.814 305.042 88.1913 304.895 87.553C304.79 86.9047 304.749 86.2476 304.774 85.5913C304.844 84.756 304.746 83.9151 304.486 83.1183C304.099 82.3627 303.569 81.69 302.924 81.138C302.445 80.7 302.012 80.214 301.632 79.6877C301.291 79.1307 301.005 78.5423 300.776 77.9306C300.579 77.1018 300.156 76.344 299.553 75.7415C298.951 75.1391 298.193 74.7158 297.364 74.5186C296.751 74.294 296.162 74.0074 295.607 73.6633C295.086 73.2836 294.603 72.8539 294.166 72.3803C293.62 71.7295 292.946 71.1979 292.186 70.8184C291.39 70.5547 290.549 70.4536 289.713 70.5209C288.41 70.6334 287.101 70.3755 285.938 69.7771C285.199 69.3272 284.35 69.0893 283.484 69.0893C282.618 69.0893 281.769 69.3272 281.029 69.7771C279.866 70.3755 278.558 70.6334 277.255 70.5209C276.42 70.4569 275.58 70.5548 274.782 70.8091C274.023 71.1952 273.35 71.7295 272.802 72.3803C272.366 72.8561 271.884 73.286 271.361 73.6633C270.806 74.0074 270.217 74.294 269.603 74.5186C268.801 74.7776 268.058 75.1948 267.419 75.7458C266.866 76.3837 266.449 77.1269 266.191 77.9306C265.965 78.543 265.678 79.1316 265.336 79.6877C264.956 80.214 264.523 80.7 264.044 81.138C263.396 81.6874 262.865 82.3607 262.482 83.1183C262.222 83.9151 262.124 84.756 262.194 85.5913C262.219 86.2476 262.178 86.9047 262.073 87.553C261.925 88.1913 261.717 88.814 261.45 89.4124C261 90.1502 260.762 90.9978 260.762 91.8621C260.762 92.7264 261 93.574 261.45 94.3119C261.718 94.9097 261.927 95.5325 262.073 96.1713C262.179 96.8195 262.219 97.4767 262.194 98.1329C262.124 98.9683 262.222 99.8091 262.482 100.606C262.869 101.362 263.399 102.034 264.044 102.586C264.523 103.024 264.956 103.51 265.336 104.037C265.677 104.594 265.963 105.182 266.191 105.794C266.451 106.596 266.868 107.339 267.419 107.978C268.061 108.525 268.803 108.942 269.603 109.206C270.217 109.43 270.806 109.717 271.361 110.061C271.884 110.438 272.366 110.868 272.802 111.344C273.35 111.992 274.024 112.523 274.782 112.906C275.579 113.165 276.419 113.266 277.255 113.203H277.636Z" fill="white"/>
<path d="M283.485 104.912C290.689 104.912 296.529 99.0717 296.529 91.8679C296.529 84.6641 290.689 78.8242 283.485 78.8242C276.281 78.8242 270.441 84.6641 270.441 91.8679C270.441 99.0717 276.281 104.912 283.485 104.912Z" fill="white"/>
<path d="M292.797 79.055C292.766 79.0564 292.735 79.0513 292.707 79.0401C292.678 79.0289 292.652 79.0118 292.63 78.99C292.607 78.9683 292.589 78.9423 292.577 78.9135C292.565 78.8848 292.559 78.8538 292.559 78.8226C292.559 78.7914 292.565 78.7604 292.577 78.7317C292.589 78.7029 292.607 78.6769 292.63 78.6553L302.856 68.4286C302.878 68.4067 302.904 68.3897 302.933 68.3785C302.962 68.3673 302.993 68.3622 303.024 68.3635H323.198C323.26 68.3635 323.319 68.388 323.363 68.4316C323.406 68.4751 323.431 68.5343 323.431 68.5959C323.431 68.6576 323.406 68.7167 323.363 68.7603C323.319 68.8038 323.26 68.8283 323.198 68.8283H303.117L292.927 78.99C292.893 79.0269 292.847 79.05 292.797 79.055Z" fill="white"/>
<path d="M267.419 128.628H247.244C247.183 128.628 247.123 128.603 247.08 128.56C247.036 128.516 247.012 128.457 247.012 128.396C247.012 128.334 247.036 128.275 247.08 128.231C247.123 128.188 247.183 128.163 247.244 128.163H267.326L277.45 118.039C277.495 118.005 277.55 117.989 277.606 117.993C277.662 117.997 277.714 118.021 277.754 118.06C277.793 118.1 277.817 118.152 277.821 118.208C277.825 118.264 277.809 118.319 277.775 118.364L267.549 128.591C267.509 128.614 267.464 128.627 267.419 128.628Z" fill="white"/>
<path d="M334.971 69.2298C334.94 69.2303 334.909 69.2229 334.881 69.2082C334.853 69.1936 334.83 69.1723 334.813 69.1461C334.777 69.1083 334.758 69.0585 334.758 69.0067C334.758 68.9549 334.777 68.9051 334.813 68.8672C335.612 68.2966 336.451 67.7839 337.323 67.3332C337.721 67.0958 338.171 66.9587 338.634 66.9335C339.081 66.9577 339.517 67.085 339.907 67.3053C340.059 67.3783 340.214 67.4434 340.372 67.5006C341.692 68.0026 343.161 67.6214 344.695 67.2124C346.035 66.747 347.461 66.5882 348.87 66.7475C349.184 66.8253 349.494 66.9184 349.799 67.0264L350.376 67.2031C352.336 67.5819 354.353 67.5471 356.298 67.1008L357.544 66.9242C359.67 66.5054 361.87 66.666 363.912 67.389C364.173 67.5006 364.433 67.6307 364.684 67.7609C365.275 68.1095 365.929 68.337 366.608 68.4303C367.387 68.4399 368.16 68.288 368.877 67.984L369.621 67.7423C371.871 67.0822 374.353 67.3239 376.751 67.5471H377.188C383.724 68.1513 390.299 68.1979 396.842 67.6865C396.868 67.684 396.894 67.6865 396.919 67.694C396.943 67.7015 396.966 67.7139 396.986 67.7303C397.006 67.7467 397.022 67.7669 397.034 67.7897C397.046 67.8125 397.054 67.8375 397.056 67.8632C397.061 67.916 397.046 67.9688 397.013 68.0105C396.98 68.0521 396.932 68.0793 396.879 68.0863C390.311 68.5977 383.712 68.5511 377.151 67.9468H376.714C374.353 67.7237 371.908 67.4913 369.732 68.1328C369.49 68.1979 369.249 68.2815 369.007 68.3652C368.235 68.6841 367.406 68.8422 366.571 68.8301C365.843 68.7298 365.141 68.4865 364.507 68.1142C364.256 67.984 364.015 67.8632 363.754 67.7516C361.775 67.0609 359.647 66.9101 357.59 67.3146L356.363 67.5006C354.358 67.9525 352.282 67.9842 350.264 67.5936L349.679 67.4076C349.375 67.2994 349.064 67.2124 348.749 67.1473C347.399 66.9965 346.033 67.1522 344.751 67.6028C343.217 68.0026 341.627 68.421 340.177 67.8818L339.694 67.6679C339.347 67.4853 338.968 67.3716 338.578 67.3332C338.18 67.3597 337.795 67.4808 337.453 67.6865C336.599 68.1272 335.778 68.6306 334.999 69.1926C334.99 69.2057 334.981 69.2182 334.971 69.2298Z" fill="white"/>
<path d="M370.195 74.555C369.37 74.5023 368.56 74.3138 367.796 73.9972C367.014 73.6666 366.18 73.4747 365.333 73.4301C364.746 73.4637 364.166 73.5667 363.603 73.7369C363.23 73.8474 362.852 73.9374 362.469 74.0065C361.453 74.132 360.426 74.132 359.41 74.0065H359.28C354.743 73.5695 350.095 73.4022 345.595 73.2348C344.042 73.179 342.304 73.4301 342.09 74.2947C342.082 74.3343 342.061 74.3702 342.031 74.3971C342.001 74.4239 341.963 74.4402 341.923 74.4434C341.882 74.4487 341.841 74.4418 341.805 74.4236C341.768 74.4053 341.738 74.3766 341.718 74.3412C341.253 73.4951 339.812 73.1325 338.632 73.2162C337.387 73.3594 336.174 73.7081 335.043 74.2482C335.019 74.2587 334.992 74.2641 334.966 74.2641C334.939 74.2641 334.913 74.2588 334.889 74.2483C334.864 74.2379 334.842 74.2226 334.824 74.2034C334.806 74.1842 334.792 74.1615 334.783 74.1366C334.764 74.0872 334.765 74.0326 334.786 73.984C334.807 73.9355 334.846 73.8969 334.894 73.8763C336.067 73.3211 337.324 72.963 338.613 72.8165C339.197 72.7494 339.788 72.8058 340.349 72.982C340.909 73.1581 341.427 73.4502 341.867 73.8391C342.518 72.8444 344.656 72.7979 345.586 72.8351C350.095 73.0024 354.753 73.1697 359.308 73.6067H359.429C360.41 73.7321 361.404 73.7321 362.385 73.6067C362.755 73.5428 363.122 73.459 363.482 73.3557C364.086 73.1687 364.711 73.0593 365.342 73.0303C366.233 73.0826 367.109 73.2805 367.936 73.616C368.86 74.0612 369.896 74.2199 370.911 74.0716C371.234 73.9794 371.546 73.8515 371.84 73.6904L372.324 73.458C373.916 72.9454 375.605 72.8054 377.261 73.0489C378.234 73.1369 379.213 73.1555 380.189 73.1047C380.215 73.1021 380.241 73.1046 380.265 73.1122C380.29 73.1197 380.313 73.132 380.333 73.1484C380.353 73.1648 380.369 73.185 380.381 73.2079C380.393 73.2307 380.401 73.2556 380.403 73.2813C380.408 73.3342 380.393 73.387 380.36 73.4286C380.327 73.4703 380.279 73.4975 380.226 73.5044C379.228 73.5556 378.228 73.5369 377.233 73.4486C375.641 73.2097 374.015 73.3402 372.482 73.8298C372.324 73.8949 372.175 73.9786 372.026 74.053C371.712 74.2196 371.382 74.3535 371.041 74.4527C370.765 74.5267 370.48 74.5612 370.195 74.555Z" fill="white"/>
<path d="M334.972 80.6946C334.926 80.6923 334.882 80.6746 334.848 80.6445C334.813 80.6144 334.79 80.5736 334.781 80.5286C334.772 80.4835 334.779 80.4369 334.8 80.3962C334.821 80.3555 334.856 80.3231 334.897 80.3041C336.445 79.6725 338.036 79.1506 339.657 78.7422C340.521 78.4924 341.418 78.3826 342.316 78.4168C342.858 78.4789 343.394 78.591 343.915 78.7515C344.419 78.9022 344.936 79.008 345.459 79.0676C346.081 79.0902 346.703 79.0528 347.318 78.956C348.242 78.766 349.197 78.7946 350.107 79.0397C350.368 79.1379 350.62 79.2593 350.86 79.4023C351.089 79.5441 351.332 79.6625 351.585 79.7556C352.794 80.1739 354.003 79.6254 355.304 79.0397C356.409 78.4141 357.66 78.0933 358.93 78.11C359.772 78.2551 360.576 78.5715 361.291 79.0397C362.047 79.5466 362.93 79.8302 363.839 79.8578C364.263 79.8158 364.681 79.7254 365.085 79.5882H365.205C368.585 78.5849 372.124 78.2285 375.637 78.5376H375.823C376.311 78.5888 376.803 78.5888 377.292 78.5376C377.589 78.4936 377.884 78.4315 378.175 78.3517L378.826 78.1937C380.18 78.0295 381.553 78.1274 382.87 78.4819L383.632 78.6306C387.1 79.2507 390.66 79.1367 394.082 78.2959C394.129 78.2941 394.176 78.3087 394.214 78.3373C394.251 78.3659 394.278 78.4068 394.289 78.4529C394.3 78.499 394.295 78.5475 394.274 78.5901C394.253 78.6327 394.218 78.6667 394.175 78.6864C390.701 79.5365 387.088 79.6505 383.567 79.0211L382.786 78.8723C381.521 78.5312 380.201 78.4365 378.9 78.5934C378.686 78.5934 378.482 78.6864 378.277 78.7329C377.972 78.8203 377.661 78.8886 377.347 78.9374C376.831 78.9886 376.311 78.9886 375.795 78.9374H375.609C372.147 78.6364 368.659 78.9864 365.326 79.9694H365.205C364.776 80.1193 364.329 80.2161 363.876 80.2576C362.883 80.2378 361.917 79.9381 361.087 79.393C360.412 78.9677 359.66 78.6802 358.874 78.547C357.675 78.5503 356.498 78.8711 355.462 79.4767C354.17 80.0717 352.84 80.676 351.474 80.2111C351.199 80.1085 350.935 79.9809 350.684 79.8299C350.461 79.6968 350.228 79.5818 349.986 79.4859C349.14 79.2706 348.256 79.2515 347.402 79.4302C346.762 79.5278 346.115 79.5651 345.468 79.5417C344.919 79.4805 344.378 79.3685 343.85 79.207C343.352 79.0573 342.842 78.9515 342.326 78.8909C341.468 78.8599 340.611 78.9666 339.787 79.207C338.185 79.6106 336.613 80.1263 335.083 80.7503L334.972 80.6946Z" fill="white"/>
<path d="M334.971 85.7317C334.926 85.7308 334.882 85.7148 334.847 85.6862C334.811 85.6575 334.787 85.6179 334.776 85.5736C334.769 85.548 334.768 85.5212 334.772 85.4949C334.775 85.4686 334.785 85.4433 334.798 85.4207C334.812 85.3981 334.831 85.3785 334.853 85.3633C334.874 85.348 334.899 85.3373 334.925 85.3319C336.754 84.8734 338.621 84.5871 340.503 84.4766C341.054 84.411 341.612 84.4488 342.149 84.5881C342.27 84.6266 342.388 84.6731 342.502 84.7276C342.651 84.7955 342.807 84.8485 342.967 84.8856C343.324 84.9453 343.688 84.9453 344.045 84.8856C345.705 84.6217 347.385 84.5004 349.066 84.5231C349.118 84.5275 349.166 84.5508 349.202 84.5885C349.238 84.6261 349.259 84.6756 349.261 84.7276C349.261 84.754 349.256 84.7802 349.245 84.8045C349.235 84.8288 349.22 84.8508 349.2 84.869C349.181 84.8873 349.159 84.9015 349.134 84.9107C349.109 84.92 349.083 84.9241 349.056 84.9228C347.413 84.8957 345.77 85.0139 344.148 85.2761C343.732 85.3652 343.304 85.3809 342.883 85.3226C342.698 85.2775 342.518 85.2153 342.344 85.1367L342.028 85.0158C341.536 84.891 341.025 84.8595 340.522 84.9228C338.64 85.0309 336.773 85.3141 334.944 85.7689L334.971 85.7317Z" fill="white"/>
<path d="M356.873 85.0426C356.843 85.049 356.812 85.0488 356.782 85.0417C356.753 85.0347 356.725 85.0211 356.701 85.0019C356.677 84.9827 356.658 84.9585 356.645 84.9309C356.632 84.9034 356.625 84.8732 356.625 84.8427C356.625 84.8122 356.632 84.782 356.645 84.7544C356.658 84.7269 356.677 84.7026 356.701 84.6835C356.725 84.6643 356.753 84.6507 356.782 84.6437C356.812 84.6366 356.843 84.6363 356.873 84.6428C357.989 84.6428 359.123 84.6428 360.211 84.6428H360.294C368.28 84.6428 376.369 84.6428 384.345 84.5312C384.398 84.5336 384.448 84.5562 384.484 84.5943C384.521 84.6324 384.541 84.6831 384.541 84.7358C384.541 84.7876 384.52 84.8372 384.484 84.8738C384.447 84.9104 384.397 84.931 384.345 84.931C376.369 85.024 368.271 85.0612 360.285 85.0426H360.201C359.113 85.0426 357.979 85.0426 356.873 85.0426Z" fill="white"/>
<g opacity="0.1">
<path d="M383.157 135.024C383.157 137.255 381.614 139.31 381.196 141.42C380.777 143.53 381.4 146.068 380.573 148.067C379.745 150.066 377.514 151.405 376.305 153.218C375.097 155.031 374.725 157.578 373.172 159.121C371.62 160.665 369.091 160.981 367.269 162.245C365.446 163.51 364.163 165.667 362.127 166.513C360.091 167.359 357.646 166.708 355.471 167.135C353.295 167.563 351.315 169.097 349.084 169.097C346.852 169.097 344.807 167.554 342.697 167.135C340.586 166.717 338.048 167.34 336.04 166.513C334.032 165.685 332.702 163.454 330.899 162.245C329.095 161.037 326.538 160.665 324.995 159.121C323.452 157.578 323.08 155.04 321.862 153.218C320.644 151.396 318.441 150.103 317.604 148.067C316.767 146.031 317.4 143.586 316.972 141.42C316.544 139.254 315.02 137.255 315.02 135.024C315.02 132.792 316.554 130.747 316.972 128.637C317.39 126.526 316.777 123.988 317.604 121.989C318.432 119.99 320.653 118.652 321.862 116.839C323.071 115.026 323.452 112.478 324.995 110.935C326.538 109.392 329.077 109.029 330.899 107.802C332.721 106.575 334.013 104.39 336.04 103.544C338.067 102.698 340.521 103.349 342.697 102.921C344.872 102.493 346.852 100.969 349.084 100.969C351.315 100.969 353.37 102.512 355.471 102.93C357.572 103.349 360.119 102.726 362.127 103.553C364.136 104.381 365.465 106.603 367.278 107.821C369.091 109.039 371.629 109.401 373.182 110.944C374.734 112.488 375.087 115.026 376.305 116.848C377.523 118.67 379.727 119.963 380.573 121.999C381.419 124.035 380.768 126.48 381.196 128.646C381.623 130.812 383.157 132.802 383.157 135.024Z" fill="white"/>
</g>
<path d="M265.781 175.438H248.47C247.479 175.438 246.676 176.241 246.676 177.232V180.402C246.676 181.393 247.479 182.196 248.47 182.196H265.781C266.772 182.196 267.575 181.393 267.575 180.402V177.232C267.575 176.241 266.772 175.438 265.781 175.438Z" fill="#ADBCF2"/>
<path d="M266.525 172.629H247.726C247.146 172.629 246.676 173.099 246.676 173.679V174.386C246.676 174.966 247.146 175.437 247.726 175.437H266.525C267.105 175.437 267.575 174.966 267.575 174.386V173.679C267.575 173.099 267.105 172.629 266.525 172.629Z" fill="white"/>
<path d="M326.874 184.652H324.066V332.251H326.874V184.652Z" fill="#263238"/>
<path d="M329.346 286.312H321.592C320.719 286.312 320.012 287.02 320.012 287.893V289.92C320.012 290.793 320.719 291.5 321.592 291.5H329.346C330.219 291.5 330.926 290.793 330.926 289.92V287.893C330.926 287.02 330.219 286.312 329.346 286.312Z" fill="#263238"/>
<path d="M297.69 332.258H294.883L324.066 288.906H326.874L297.69 332.258Z" fill="#263238"/>
<path d="M353.25 332.258H356.057L326.874 288.906H324.066L353.25 332.258Z" fill="#263238"/>
<path d="M415.648 56.2043H235.286C234.934 56.2043 234.596 56.0643 234.346 55.8149C234.097 55.5656 233.957 55.2275 233.957 54.8749C233.959 54.5239 234.101 54.1881 234.35 53.9408C234.599 53.6935 234.936 53.5547 235.286 53.5547H415.648C415.998 53.5547 416.334 53.6938 416.582 53.9414C416.829 54.1889 416.968 54.5247 416.968 54.8749C416.97 55.049 416.936 55.2217 416.87 55.3829C416.805 55.5442 416.708 55.6908 416.585 55.8144C416.462 55.938 416.316 56.036 416.155 56.103C415.995 56.1699 415.822 56.2043 415.648 56.2043Z" fill="#E0E0E0"/>
<path d="M422.808 182.195H228.129L232.666 187.113H418.271L422.808 182.195Z" fill="#E0E0E0"/>
<path d="M185.855 224.824H96.6133V227.009H185.855V224.824Z" fill="#ADBCF2"/>
<path d="M185.856 224.824H162.195V227.009H185.856V224.824Z" fill="#263238"/>
<path d="M149.42 335.559H148.072L142.438 277.871C141.974 273.083 138.85 269.503 135.196 269.503H124.095C120.377 269.503 117.318 273.111 116.853 277.871L111.219 335.559H109.871L115.524 277.61C116.072 271.948 119.754 267.672 124.095 267.672H135.196C139.528 267.672 143.219 271.948 143.768 277.61L149.42 335.559Z" fill="#263238"/>
<path d="M107.428 335.559H106.062L100.483 277.871C100.019 273.083 96.9041 269.503 93.2411 269.503H82.1033C78.4403 269.503 75.3258 273.111 74.8609 277.871L69.227 335.559H67.8789L73.5222 277.61C74.0707 271.948 77.7616 267.672 82.094 267.672H93.1946C97.5363 267.672 101.218 271.948 101.766 277.61L107.428 335.559Z" fill="#263238"/>
<path d="M101.411 149.804C101.615 150.381 102.09 150.734 102.48 150.641C102.87 150.548 103.01 149.953 102.805 149.367C102.601 148.782 102.127 148.438 101.746 148.531C101.364 148.624 101.178 149.219 101.411 149.804Z" fill="#263238"/>
<path d="M101.941 150.242C103.141 151.508 104.504 152.609 105.995 153.515C105.752 153.879 105.432 154.185 105.058 154.411C104.683 154.638 104.264 154.779 103.829 154.826L101.941 150.242Z" fill="#ED893E"/>
<path d="M98.9303 147.928C98.8692 147.942 98.8056 147.942 98.7444 147.928C98.6976 147.92 98.6529 147.903 98.6129 147.878C98.5729 147.852 98.5385 147.819 98.5116 147.78C98.4847 147.741 98.4659 147.697 98.4564 147.651C98.4469 147.604 98.4468 147.556 98.4562 147.51C98.5424 146.948 98.7656 146.415 99.1061 145.96C99.4466 145.504 99.8939 145.139 100.409 144.897C100.495 144.872 100.588 144.88 100.669 144.919C100.75 144.958 100.813 145.026 100.847 145.11C100.88 145.193 100.882 145.286 100.85 145.371C100.819 145.455 100.758 145.525 100.678 145.567C100.278 145.766 99.9314 146.058 99.6677 146.419C99.4039 146.779 99.2308 147.198 99.1628 147.64C99.1526 147.704 99.1258 147.764 99.085 147.815C99.0442 147.866 98.9909 147.905 98.9303 147.928Z" fill="#263238"/>
<path d="M83.4023 158.859L89.371 164.512L97.2828 168.956C97.0038 169.216 97.1061 170.983 97.2177 171.866C97.2493 172.831 97.5804 173.762 98.1652 174.53C98.75 175.298 99.5593 175.865 100.481 176.152C101.411 176.552 102.34 177.081 102.517 177.955C102.703 179.034 101.913 180.373 97.4873 181.014C93.243 181.583 88.9238 180.975 85.0014 179.257C83.142 178.495 83.4581 177.658 83.923 175.891C85.113 171.382 84.8434 163.424 83.4023 158.859Z" fill="#FFB573"/>
<path d="M81.0234 177.956C81.9548 175.595 82.7099 173.168 83.2826 170.695C83.2826 170.695 95.3687 169.812 99.3943 171.393C103.42 172.973 105.902 179.825 105.902 179.825L81.0234 177.956Z" fill="#263238"/>
<path d="M82.082 155.673C84.9362 162.488 86.2564 166.616 90.9978 168.903C98.1286 172.343 105.566 166.011 104.795 158.453C104.097 151.648 99.5511 141.663 91.7788 141.384C90.0571 141.331 88.3499 141.714 86.8157 142.497C85.2815 143.28 83.9699 144.438 83.0027 145.863C82.0355 147.288 81.444 148.935 81.283 150.65C81.1221 152.365 81.3969 154.093 82.082 155.673Z" fill="#FFB573"/>
<path d="M96.4366 155.318C99.1234 152.25 97.2547 146.951 94.8747 144.878C97.1803 144.794 103.149 144.274 101.383 139.132C99.6161 133.991 93.4708 133.387 91.6858 135.925C86.6096 133.136 80.5294 135.553 81.989 139.43C76.0204 138.5 74.3097 144.422 76.7734 146.812C73.6403 149.424 72.5154 154.565 76.6154 156.508C80.7153 158.452 80.799 163.295 84.9827 165.805C89.1663 168.316 98.7515 164.039 96.4366 155.318Z" fill="#263238"/>
<path d="M92.9887 156.349C93.8748 157.742 95.241 158.761 96.8283 159.213C98.883 159.761 99.8777 157.484 99.1154 155.494C98.4274 153.746 96.3263 151.775 94.3739 152.063C92.4216 152.352 91.8916 154.611 92.9887 156.349Z" fill="#FFB573"/>
<path d="M86.6934 187.059L80.6504 199.145C79.637 201.163 78.6515 203.171 77.6939 205.188C76.7363 207.206 75.7788 209.186 74.9513 211.157C74.5051 212.152 74.1332 213.1 73.7334 214.076L73.2221 215.461L73.157 215.638V215.722V215.768V215.675C73.2511 215.286 73.2917 214.885 73.2779 214.485C73.2879 214.191 73.2307 213.898 73.1105 213.63C73.0361 213.5 73.1105 213.751 73.1663 214.048C73.2908 214.422 73.4431 214.785 73.6219 215.136C74.0216 215.945 74.5516 216.819 75.0536 217.72C77.2384 221.328 79.9066 225.158 82.3238 228.951L82.3889 229.044C82.8316 229.741 83.0227 230.568 82.9305 231.388C82.8383 232.208 82.4683 232.972 81.8819 233.553C81.2956 234.134 80.5282 234.497 79.7072 234.581C78.8862 234.666 78.061 234.467 77.3685 234.018C75.3285 232.712 73.3694 231.284 71.5021 229.742C69.584 228.196 67.7644 226.531 66.0541 224.758C65.1206 223.804 64.248 222.792 63.4417 221.728C62.9772 221.13 62.5428 220.509 62.1401 219.868C61.6014 218.994 61.1706 218.057 60.8571 217.079C60.5927 216.251 60.4456 215.391 60.4201 214.522C60.4039 213.831 60.4789 213.14 60.6433 212.468L60.792 211.873L61.2847 209.948C61.6566 208.749 62.0006 207.503 62.4097 206.36C63.1999 204.007 64.0645 201.776 64.9385 199.545C65.8124 197.314 66.7979 195.147 67.7276 193.037C69.6985 188.723 71.7346 184.549 74.0588 180.365C74.9428 178.685 76.4581 177.424 78.2713 176.861C80.0846 176.298 82.0473 176.478 83.7277 177.362C85.4081 178.246 86.6685 179.761 87.2316 181.575C87.7948 183.388 87.6146 185.351 86.7306 187.031L86.6934 187.059Z" fill="#FFB573"/>
<path d="M82.0016 174.944C89.7925 175.223 93.3346 181.052 86.8732 191.428C81.295 200.343 80.5606 200.529 80.5606 200.529L66.457 193.538C71.1985 184.511 74.0341 174.647 82.0016 174.944Z" fill="#ADBCF2"/>
<g opacity="0.3">
<path d="M82.0016 174.944C89.7925 175.223 93.3346 181.052 86.8732 191.428C81.295 200.343 80.5606 200.529 80.5606 200.529L66.457 193.538C71.1985 184.511 74.0341 174.647 82.0016 174.944Z" fill="black"/>
</g>
<path d="M86.0544 230.57L85.2641 229.687C82.8283 227.427 81.787 227.706 78.9979 227.706L75.5859 230.263C77.6499 235.934 81.8242 235.683 81.8242 235.683L83.0328 236.808C83.2984 237.053 83.6207 237.229 83.9709 237.319C84.321 237.41 84.6881 237.411 85.0392 237.325C85.3903 237.238 85.7144 237.066 85.9825 236.823C86.2505 236.58 86.4541 236.275 86.575 235.934L86.9283 234.93C87.1842 234.191 87.2382 233.398 87.0845 232.631C86.9309 231.864 86.5752 231.153 86.0544 230.57Z" fill="#FFB573"/>
<path d="M167.84 315.004L174.506 311.257L167.412 295.016L160.746 298.753L167.84 315.004Z" fill="#FFB573"/>
<path opacity="0.2" d="M164.186 306.628L170.954 303.132L167.412 295.016L160.746 298.753L164.186 306.628Z" fill="black"/>
<path d="M173.642 307.847L165.089 308.451C164.944 308.458 164.808 308.521 164.709 308.627C164.61 308.733 164.556 308.873 164.559 309.018L164.624 315.805C164.65 316.161 164.815 316.492 165.082 316.729C165.35 316.965 165.699 317.087 166.055 317.069C169.021 316.809 170.23 316.065 173.958 315.535C176.254 315.201 181.767 314.884 184.863 314.029C187.959 313.174 187.448 310.31 184.919 310.44C181.637 310.589 177.249 309.762 174.981 308.228C174.589 307.956 174.118 307.822 173.642 307.847Z" fill="#263238"/>
<path d="M115.359 237.158C115.359 237.158 154.295 234.834 157.586 249.932C164.28 280.612 170.741 297.654 170.741 297.654L160.44 302.972C160.44 302.972 145.267 281.719 140.795 259.945C124.935 257.565 97.2112 265.96 90.5917 254.051C84.7346 243.545 89.8758 235.996 89.8758 235.996L115.359 237.158Z" fill="#263238"/>
<path d="M160.636 305.744L172.629 299.934L171.281 295.016L158.098 301.207L160.636 305.744Z" fill="#ADBCF2"/>
<path d="M176.43 308.99C175.746 309.016 175.06 308.973 174.385 308.86C174.35 308.856 174.317 308.841 174.291 308.818C174.264 308.794 174.245 308.764 174.236 308.73C174.227 308.696 174.229 308.66 174.24 308.627C174.252 308.594 174.273 308.565 174.301 308.544C174.534 308.358 176.579 306.731 177.537 307.028C177.645 307.064 177.742 307.126 177.82 307.208C177.898 307.291 177.954 307.392 177.983 307.503C178.046 307.666 178.065 307.842 178.039 308.015C178.013 308.188 177.943 308.351 177.834 308.488C177.442 308.818 176.943 308.997 176.43 308.99ZM174.85 308.562C176.235 308.739 177.23 308.627 177.564 308.246C177.634 308.156 177.678 308.05 177.693 307.937C177.708 307.824 177.692 307.71 177.648 307.605C177.633 307.552 177.606 307.504 177.569 307.463C177.532 307.423 177.486 307.392 177.434 307.372C176.914 307.214 175.696 307.94 174.859 308.562H174.85Z" fill="#ADBCF2"/>
<path d="M174.421 308.856C174.394 308.865 174.364 308.865 174.337 308.856C174.31 308.845 174.287 308.828 174.269 308.805C174.251 308.782 174.239 308.755 174.235 308.726C174.235 308.633 173.891 306.458 174.607 305.658C174.7 305.558 174.814 305.479 174.941 305.427C175.068 305.376 175.205 305.353 175.341 305.361C175.494 305.356 175.644 305.402 175.769 305.491C175.893 305.58 175.984 305.707 176.029 305.854C176.262 306.672 175.239 308.336 174.514 308.847C174.485 308.86 174.452 308.863 174.421 308.856ZM175.248 305.695C175.177 305.7 175.107 305.719 175.043 305.75C174.979 305.782 174.923 305.827 174.876 305.881C174.449 306.356 174.477 307.611 174.542 308.336C175.215 307.707 175.624 306.847 175.685 305.928C175.685 305.826 175.592 305.714 175.332 305.695H175.248Z" fill="#ADBCF2"/>
<path d="M123.902 328.931L131.47 328.568L132.707 310.699L125.139 311.062L123.902 328.931Z" fill="#FFB573"/>
<path d="M132.233 326.169L123.671 325.899C123.527 325.891 123.386 325.939 123.277 326.033C123.168 326.126 123.099 326.258 123.085 326.401L122.462 333.16C122.455 333.337 122.482 333.514 122.543 333.681C122.604 333.847 122.697 334 122.817 334.13C122.937 334.26 123.082 334.366 123.243 334.44C123.403 334.515 123.577 334.557 123.754 334.564C126.739 334.564 127.994 334.229 131.759 334.35C134.074 334.425 138.267 334.797 142.172 334.797C146.076 334.797 144.505 331.636 142.423 331.338C139.169 330.873 135.636 328.437 133.535 326.69C133.173 326.373 132.714 326.19 132.233 326.169Z" fill="#263238"/>
<path d="M134.881 327.582C134.196 327.538 133.517 327.426 132.855 327.247C132.821 327.238 132.79 327.219 132.767 327.193C132.744 327.166 132.729 327.134 132.724 327.099C132.719 327.064 132.725 327.029 132.74 326.998C132.755 326.966 132.778 326.94 132.808 326.922C133.05 326.764 135.263 325.351 136.174 325.751C136.278 325.795 136.37 325.865 136.44 325.955C136.51 326.044 136.556 326.15 136.573 326.262C136.62 326.425 136.622 326.598 136.578 326.762C136.533 326.926 136.445 327.074 136.322 327.192C135.909 327.5 135.394 327.64 134.881 327.582ZM133.347 327.006C134.705 327.313 135.709 327.303 136.081 326.959C136.157 326.877 136.211 326.777 136.237 326.667C136.263 326.558 136.26 326.444 136.229 326.336C136.223 326.28 136.201 326.226 136.167 326.18C136.132 326.134 136.087 326.098 136.034 326.076C135.56 325.862 134.277 326.467 133.366 327.006H133.347Z" fill="#ADBCF2"/>
<path d="M132.911 327.247H132.837C132.809 327.233 132.785 327.212 132.769 327.186C132.753 327.16 132.744 327.129 132.744 327.098C132.744 327.005 132.632 324.811 133.432 324.086C133.534 323.995 133.656 323.928 133.788 323.889C133.92 323.85 134.058 323.842 134.194 323.863C134.345 323.875 134.487 323.936 134.6 324.036C134.712 324.137 134.789 324.272 134.817 324.421C134.966 325.258 133.776 326.819 132.957 327.21C132.945 327.225 132.929 327.238 132.911 327.247ZM134.054 324.188C133.91 324.185 133.77 324.239 133.664 324.337C133.218 325.057 133.016 325.901 133.088 326.745C133.766 326.206 134.566 325.016 134.464 324.467C134.464 324.365 134.398 324.235 134.138 324.198L134.054 324.188Z" fill="#ADBCF2"/>
<path opacity="0.2" d="M125.137 311.07L132.705 310.707L131.989 320.924L124.449 320.915L125.137 311.07Z" fill="black"/>
<path d="M97.5436 236.349C97.5436 236.349 144.81 245.154 143.889 258.43C142.244 282.332 134.23 316.489 134.23 316.489L122.878 316.647C122.878 316.647 121.325 281.124 122.729 263.831C108.551 263.831 80.651 263.338 75.1936 256.04C69.1599 247.989 75.361 235.336 75.361 235.336L97.5436 236.349Z" fill="#263238"/>
<path d="M121.923 318.702L136.25 318.498L136.928 313.84L121.328 314.295L121.923 318.702Z" fill="#ADBCF2"/>
<path d="M107.696 175.473C103.047 174.543 82.1105 174.831 82.1105 174.831C80.0164 174.779 77.9787 175.514 76.4003 176.891C74.8218 178.268 73.8172 180.187 73.5851 182.269C72.8507 188.721 75.0169 203.01 75.1656 210.374C75.3423 219.41 75.5375 223.222 75.3609 235.383L124.105 237.939C125.964 215.775 118.741 205.084 114.436 183.031C113.795 179.656 112.335 176.375 107.696 175.473Z" fill="#ADBCF2"/>
<path opacity="0.3" d="M107.696 175.473C103.047 174.543 82.1105 174.831 82.1105 174.831C80.0164 174.779 77.9787 175.514 76.4003 176.891C74.8218 178.268 73.8172 180.187 73.5851 182.269C72.8507 188.721 75.0169 203.01 75.1656 210.374C75.3423 219.41 75.5375 223.222 75.3609 235.383L124.105 237.939C125.964 215.775 118.741 205.084 114.436 183.031C113.795 179.656 112.335 176.375 107.696 175.473Z" fill="black"/>
<path d="M113.63 182.606C115.824 186.511 118.084 190.611 120.361 194.525C121.486 196.505 122.648 198.448 123.82 200.345C124.991 202.241 126.2 204.064 127.408 205.83L128.338 207.085C128.645 207.513 128.942 207.847 129.268 208.229L129.491 208.517L129.602 208.656L129.528 208.582L129.361 208.461C129.361 208.461 129.314 208.461 129.361 208.517C129.638 208.747 129.93 208.958 130.235 209.149C131.824 210.181 133.888 211.232 135.887 212.291C139.941 214.402 144.18 216.494 148.289 218.799H148.345C149.11 219.198 149.708 219.857 150.028 220.658C150.349 221.459 150.372 222.349 150.093 223.165C149.814 223.981 149.252 224.671 148.508 225.108C147.764 225.546 146.889 225.702 146.04 225.549C141.208 224.975 136.425 224.043 131.731 222.76C129.237 222.102 126.79 221.279 124.405 220.296C123.648 219.969 122.912 219.593 122.202 219.171C122.016 219.069 121.747 218.883 121.505 218.716L121.124 218.437L120.631 218.018L120.389 217.805L120.222 217.637L120.036 217.451L119.664 217.079C119.19 216.587 118.651 216.075 118.223 215.583L116.893 214.095C113.705 210.244 110.776 206.184 108.126 201.944C105.523 197.788 103.125 193.679 100.912 189.235C100.085 187.566 99.9414 185.64 100.511 183.867C101.081 182.093 102.32 180.612 103.964 179.737C105.609 178.862 107.53 178.663 109.319 179.181C111.108 179.7 112.624 180.895 113.547 182.513L113.63 182.606Z" fill="#FFB573"/>
<path d="M100.556 180.066C104.749 173.502 111.573 173.409 117.235 184.24C122.097 193.537 121.883 194.29 121.883 194.29L108.71 202.908C103.317 194.243 96.2609 186.787 100.556 180.066Z" fill="#ADBCF2"/>
<g opacity="0.3">
<path d="M100.556 180.066C104.749 173.502 111.573 173.409 117.235 184.24C122.097 193.537 121.883 194.29 121.883 194.29L108.71 202.908C103.317 194.243 96.2609 186.787 100.556 180.066Z" fill="black"/>
</g>
<path d="M151.766 218.24L150.614 218.026C147.295 217.719 146.653 218.584 144.44 220.285L143.297 224.394C148.401 227.62 151.553 224.868 151.553 224.868L153.198 225.027C153.558 225.059 153.92 225.001 154.252 224.859C154.584 224.716 154.875 224.493 155.099 224.21C155.323 223.927 155.473 223.592 155.536 223.236C155.598 222.881 155.571 222.515 155.457 222.172L155.123 221.159C154.877 220.416 154.435 219.753 153.845 219.239C153.254 218.726 152.536 218.38 151.766 218.24Z" fill="#FFB573"/>
<path d="M49.5164 231.321C48.634 226.374 48.8595 221.294 50.1765 216.445L51.1062 216.696C49.829 221.409 49.613 226.347 50.474 231.153L49.5164 231.321Z" fill="#ADBCF2"/>
<path d="M51.0962 234.957L50.1797 235.113L51.0658 240.319L51.9823 240.163L51.0962 234.957Z" fill="#ADBCF2"/>
<path d="M145.667 263.664L124.879 262.837L119.431 230.809C116.642 214.307 102.343 200.938 87.5329 200.938H74.4521C59.6419 200.938 49.9173 214.307 52.725 230.809L56.4438 252.917C57.829 261.098 64.9133 267.736 72.2487 267.736H154.564C154.738 267.714 154.9 267.638 155.028 267.52C155.156 267.401 155.243 267.245 155.278 267.073C155.313 266.902 155.294 266.724 155.222 266.565C155.151 266.405 155.031 266.272 154.88 266.184C152.026 264.69 148.884 263.831 145.667 263.664Z" fill="#ADBCF2"/>
<path d="M150.566 267.001H143.965V265.3H150.566C167.161 265.3 180.669 250.211 180.669 231.664V225.918H182.371V231.664C182.371 251.15 168.1 267.001 150.566 267.001Z" fill="#263238"/>
<path d="M286.09 224.824H196.848V227.009H286.09V224.824Z" fill="#ADBCF2"/>
<path d="M256.404 223.738H226.523V224.835H256.404V223.738Z" fill="#E0E0E0"/>
<path d="M286.087 224.824H262.426V227.009H286.087V224.824Z" fill="#263238"/>
<path d="M249.652 335.562H248.304L242.68 277.875C242.206 273.087 239.091 269.507 235.437 269.507H224.281C220.618 269.507 217.513 273.115 217.039 277.875L211.46 335.562H210.094L215.765 277.614C216.313 271.952 219.995 267.676 224.327 267.676H235.484C239.816 267.676 243.498 271.952 244.056 277.614L249.652 335.562Z" fill="#263238"/>
<path d="M207.661 335.562H206.313L200.679 277.875C200.214 273.087 197.099 269.507 193.436 269.507H182.299C178.636 269.507 175.521 273.115 175.056 277.875L169.422 335.562H168.074L173.764 277.614C174.313 271.952 177.994 267.676 182.336 267.676H193.455C197.787 267.676 201.478 271.952 202.027 277.614L207.661 335.562Z" fill="#263238"/>
<path d="M188.683 202.021L186.889 215.213C186.322 219.61 185.736 224.008 185.308 228.331L185.169 229.939L185.104 230.748C185.116 230.615 185.116 230.481 185.104 230.348C185.083 230.222 185.051 230.098 185.011 229.977C184.957 229.815 184.882 229.662 184.788 229.521C184.648 229.344 184.63 229.372 184.667 229.409C184.746 229.495 184.837 229.571 184.936 229.633C185.266 229.863 185.614 230.065 185.978 230.237C187.846 231.096 189.776 231.814 191.751 232.385C195.879 233.668 200.211 234.709 204.488 235.778L204.004 239.497C199.431 239.349 194.873 238.876 190.366 238.084C187.977 237.682 185.63 237.059 183.356 236.224C182.686 235.963 182.036 235.653 181.413 235.294C181.028 235.077 180.661 234.828 180.316 234.551C179.829 234.171 179.403 233.719 179.051 233.212C178.804 232.835 178.604 232.429 178.456 232.003C178.378 231.747 178.316 231.486 178.27 231.222C178.254 230.953 178.254 230.683 178.27 230.414V229.54V227.801C178.456 223.208 178.875 218.718 179.358 214.237C179.842 209.756 180.409 205.302 181.115 200.84L188.683 202.021Z" fill="#FFC3BD"/>
<path d="M214.373 239.735L211.481 242.375C211.153 242.677 210.742 242.872 210.301 242.937C209.86 243.002 209.409 242.932 209.008 242.738L205.82 241.204C205.82 241.204 201.097 241.008 200.418 238.117L201.645 235.876L208.962 235.058C209.717 234.978 210.478 235.148 211.128 235.542L214.14 237.401C214.333 237.521 214.495 237.683 214.615 237.875C214.735 238.068 214.809 238.285 214.832 238.511C214.854 238.736 214.825 238.964 214.745 239.176C214.665 239.388 214.538 239.58 214.373 239.735Z" fill="#FFC3BD"/>
<path d="M197.098 174.91C197.841 179.438 198.474 187.712 195.238 190.613C200.339 193.456 204.796 197.324 208.328 201.974C213.907 197.586 209.258 191.031 209.258 191.031C204.275 189.683 204.517 185.964 205.493 182.497L197.098 174.91Z" fill="#FFC3BD"/>
<path d="M186.305 191.79C180.606 193.65 179.379 201.283 179.89 207.223L191.391 214.298C191.391 214.298 194.18 205.624 194.18 200.985C194.133 196.048 190.173 190.535 186.305 191.79Z" fill="#263238"/>
<path d="M222.514 202.893C222.04 209.401 220.58 220.455 216.992 239.003L186.2 238.073C187.009 226.703 185.791 218.234 183.002 198.338C182.888 197.477 182.947 196.603 183.176 195.765C183.405 194.928 183.799 194.145 184.335 193.462C184.872 192.78 185.539 192.211 186.298 191.79C187.058 191.369 187.894 191.105 188.757 191.012C190.728 190.807 192.977 190.64 195.265 190.594C199.917 190.404 204.577 190.544 209.21 191.012C210.716 191.198 212.259 191.43 213.738 191.681C216.334 192.121 218.673 193.514 220.297 195.588C221.92 197.662 222.711 200.267 222.514 202.893Z" fill="#263238"/>
<path d="M211.32 165.769C211.506 166.355 211.971 166.699 212.352 166.606C212.734 166.513 212.892 165.908 212.706 165.332C212.52 164.756 212.055 164.402 211.674 164.495C211.293 164.588 211.116 165.193 211.32 165.769Z" fill="#263238"/>
<path d="M211.516 164.578L212.78 163.723C212.78 163.723 212.417 165.052 211.516 164.578Z" fill="#263238"/>
<path d="M211.711 166.652C212.655 167.815 213.757 168.842 214.983 169.702C214.755 170.01 214.462 170.265 214.125 170.448C213.787 170.631 213.414 170.738 213.031 170.762L211.711 166.652Z" fill="#ED847E"/>
<path d="M210.373 160.524C210.404 160.471 210.42 160.41 210.42 160.348C210.42 160.286 210.404 160.225 210.373 160.171C210.316 160.095 210.231 160.045 210.137 160.031C210.043 160.017 209.948 160.041 209.871 160.097C209.403 160.424 209.021 160.859 208.757 161.366C208.493 161.873 208.355 162.435 208.355 163.007C208.357 163.053 208.367 163.099 208.387 163.142C208.406 163.185 208.434 163.223 208.469 163.254C208.504 163.285 208.545 163.309 208.589 163.324C208.634 163.339 208.681 163.345 208.727 163.341C208.775 163.34 208.821 163.329 208.864 163.31C208.907 163.29 208.946 163.263 208.978 163.228C209.01 163.193 209.035 163.153 209.051 163.108C209.067 163.064 209.074 163.016 209.071 162.969C209.075 162.517 209.189 162.073 209.403 161.674C209.616 161.276 209.924 160.935 210.299 160.682C210.338 160.638 210.364 160.583 210.373 160.524Z" fill="#263238"/>
<path d="M190.728 169.648C193.517 176.657 194.447 179.679 199.281 182.189C206.496 185.964 214.501 181.055 213.906 173.366C213.376 166.449 208.978 156.148 201.057 155.553C199.308 155.403 197.55 155.705 195.952 156.431C194.353 157.156 192.969 158.281 191.931 159.697C190.893 161.113 190.238 162.772 190.027 164.515C189.816 166.258 190.058 168.025 190.728 169.648Z" fill="#FFC3BD"/>
<path d="M207.567 168.03C208.925 167.64 211.286 164.934 207.168 159.486C209.371 159.087 211.165 155.042 205.122 152.727C199.079 150.412 192.488 151.537 188.49 157.078C188.49 157.078 175.744 160.844 186.128 173.962C196.513 187.08 209.696 181.734 207.567 168.03Z" fill="#263238"/>
<path d="M183.766 157.066C183.764 157.436 183.856 157.801 184.033 158.126C184.21 158.451 184.467 158.726 184.779 158.925C185.377 159.429 186.122 159.726 186.902 159.773C187.683 159.82 188.457 159.614 189.111 159.186C190.523 158.256 191.813 157.153 192.951 155.904C193.288 155.539 193.548 155.111 193.717 154.644C193.885 154.177 193.959 153.682 193.933 153.186C193.907 152.69 193.782 152.205 193.565 151.758C193.349 151.312 193.045 150.913 192.672 150.586C192.502 150.443 192.322 150.312 192.133 150.195C192.133 150.195 184.835 150.409 183.766 157.066Z" fill="#ADBCF2"/>
<path d="M184.799 156.194C188.973 155.524 191.195 152.187 191.437 151.192C190.507 148.738 178.421 133.137 168.12 144.545C157.242 156.631 178.533 168.782 170.909 183.332C184.157 178.878 194.96 169.712 184.799 156.194Z" fill="#263238"/>
<path d="M204.552 169.48C205.261 170.875 206.495 171.932 207.983 172.418C209.954 173.04 211.013 171.293 210.521 169.396C210.084 167.685 208.531 165.296 206.523 165.501C206.085 165.552 205.667 165.712 205.306 165.967C204.946 166.221 204.655 166.561 204.459 166.956C204.263 167.351 204.169 167.789 204.185 168.23C204.202 168.67 204.328 169.1 204.552 169.48Z" fill="#FFC3BD"/>
<path d="M254.376 323.742L261.646 323.054L256.747 305.148L249.477 305.836L254.376 323.742Z" fill="#FFC3BD"/>
<path d="M271.444 327.957C267 326.646 267.139 324.694 262.705 321.087C262.262 320.687 261.707 320.433 261.115 320.361L253.882 319.859C253.741 319.86 253.606 319.911 253.5 320.003C253.395 320.096 253.325 320.223 253.305 320.361L252.283 325.372C251.929 327.111 252.999 328.775 254.505 328.831C256.913 328.924 259.869 329.017 262.5 329.194C266.34 329.463 266.386 331.406 270.867 331.192C273.629 331.062 272.959 328.403 271.444 327.957Z" fill="#263238"/>
<path d="M281.432 300.706L286.36 296.429L278.113 283.906L271.949 289.745L281.432 300.706Z" fill="#FFC3BD"/>
<path d="M285.04 293.78L279.164 299.219C279.052 299.325 278.981 299.466 278.962 299.619C278.943 299.772 278.979 299.926 279.062 300.056L281.851 304.37C282.089 304.705 282.397 304.987 282.752 305.195C283.107 305.403 283.503 305.533 283.912 305.577C284.322 305.621 284.736 305.578 285.128 305.45C285.519 305.322 285.879 305.112 286.183 304.834C288.108 303.347 289.195 300.735 291.473 298.596C294.792 295.491 295.387 295.575 297.442 291.233C298.836 288.314 295.796 288.304 294.727 289.206C292.04 291.493 293.1 291.586 286.843 292.925C286.175 293.04 285.552 293.336 285.04 293.78Z" fill="#263238"/>
<path d="M206.253 238.472C206.253 238.472 256.104 231.09 261.264 243.873C270.245 266.103 283.242 291.149 283.242 291.149L277.385 296.522C277.385 296.522 255.072 276.524 247.337 254.184C238.105 257.177 208.717 266.791 197.951 266.791C186.46 266.791 181.765 256.991 185.921 240.759C186.102 240.052 186.514 239.427 187.092 238.982C187.67 238.537 188.38 238.298 189.11 238.305C196.343 238.305 206.253 238.472 206.253 238.472Z" fill="#ADBCF2"/>
<path opacity="0.5" d="M206.253 238.472C206.253 238.472 256.104 231.09 261.264 243.873C270.245 266.103 283.242 291.149 283.242 291.149L277.385 296.522C277.385 296.522 255.072 276.524 247.337 254.184C238.105 257.177 208.717 266.791 197.951 266.791C186.46 266.791 181.765 256.991 185.921 240.759C186.102 240.052 186.514 239.427 187.092 238.982C187.67 238.537 188.38 238.298 189.11 238.305C196.343 238.305 206.253 238.472 206.253 238.472Z" fill="white"/>
<path d="M211.033 244.962C211.033 244.962 251.94 243.726 252.293 258.22C252.86 282.197 260.214 316.484 260.214 316.484L252.154 317.237C252.154 317.237 239.938 289.913 236.73 266.457C222.152 267.387 208.718 266.755 197.952 266.755C185.866 266.755 184.937 253.506 196.641 238.055C203.819 238.092 211.033 244.962 211.033 244.962Z" fill="#ADBCF2"/>
<path opacity="0.5" d="M211.033 244.962C211.033 244.962 251.94 243.726 252.293 258.22C252.86 282.197 260.214 316.484 260.214 316.484L252.154 317.237C252.154 317.237 239.938 289.913 236.73 266.457C222.152 267.387 208.718 266.755 197.952 266.755C185.866 266.755 184.937 253.506 196.641 238.055C203.819 238.092 211.033 244.962 211.033 244.962Z" fill="white"/>
<path d="M185.8 236.267L184.926 239.001C184.814 239.214 185.056 239.437 185.419 239.447L217.103 240.376C217.382 240.376 217.614 240.256 217.642 240.088L217.995 237.299C217.995 237.113 217.791 236.937 217.484 236.927L186.302 235.998C186.201 235.99 186.1 236.011 186.011 236.059C185.923 236.107 185.849 236.179 185.8 236.267Z" fill="white"/>
<path d="M189.882 239.878H189.045C188.878 239.878 188.757 239.785 188.766 239.673L189.268 236.103C189.268 236.001 189.426 235.917 189.594 235.926H190.43C190.598 235.926 190.718 236.019 190.709 236.122L190.207 239.692C190.198 239.803 190.049 239.887 189.882 239.878Z" fill="#263238"/>
<path d="M214.753 240.619H213.916C213.749 240.619 213.628 240.526 213.637 240.424L214.139 236.854C214.139 236.752 214.297 236.668 214.465 236.668H215.301C215.469 236.668 215.59 236.761 215.58 236.873L215.078 240.433C215.069 240.545 214.92 240.619 214.753 240.619Z" fill="#263238"/>
<path d="M202.311 240.247H201.484C201.316 240.247 201.186 240.154 201.205 240.052L201.698 236.482C201.698 236.38 201.865 236.296 202.032 236.305H202.869C203.036 236.305 203.157 236.408 203.139 236.51L202.646 240.08C202.627 240.173 202.479 240.257 202.311 240.247Z" fill="#263238"/>
<path d="M223.686 206.426C223.807 207.086 223.983 207.941 224.141 208.704C224.299 209.466 224.495 210.284 224.699 211.065C225.099 212.627 225.545 214.179 226.047 215.713C226.553 217.201 227.133 218.663 227.786 220.092C228.416 221.451 229.159 222.754 230.008 223.988L230.157 224.22L230.101 224.146C230.062 224.101 230.018 224.06 229.971 224.025C229.894 223.949 229.81 223.881 229.72 223.82C229.491 223.655 229.227 223.546 228.948 223.504C228.697 223.504 228.836 223.504 229.041 223.504C229.676 223.438 230.3 223.294 230.9 223.077C232.408 222.556 233.886 221.951 235.326 221.264C238.329 219.86 241.387 218.279 244.39 216.708L246.575 219.795C243.93 222.171 241.112 224.346 238.143 226.303C236.59 227.333 234.965 228.25 233.28 229.045C232.286 229.518 231.241 229.876 230.166 230.115C229.35 230.293 228.508 230.318 227.684 230.189C226.979 230.068 226.31 229.795 225.722 229.389C225.544 229.266 225.376 229.129 225.22 228.98L224.987 228.739L224.811 228.553L224.578 228.255C222.153 225.265 220.246 221.89 218.935 218.27C218.281 216.544 217.719 214.785 217.252 212.999C217.02 212.069 216.815 211.214 216.62 210.312C216.425 209.41 216.276 208.545 216.137 207.523L223.686 206.426Z" fill="#FFC3BD"/>
<path d="M219.988 195.233C225.38 199.389 225.38 211.605 225.38 211.605L216.083 214.18C216.083 214.18 209.399 206.083 211.091 202.243C212.867 198.245 217.078 193.011 219.988 195.233Z" fill="#263238"/>
<path d="M252.339 216.496C252.257 216.493 252.177 216.47 252.107 216.427C252.037 216.385 251.979 216.325 251.939 216.254L244.585 202.169C244.558 202.117 244.542 202.059 244.537 202C244.532 201.942 244.539 201.882 244.557 201.826C244.575 201.77 244.604 201.718 244.643 201.673C244.681 201.628 244.728 201.591 244.781 201.565C244.886 201.511 245.008 201.501 245.12 201.536C245.233 201.57 245.328 201.647 245.385 201.751L252.748 215.836C252.775 215.888 252.792 215.945 252.797 216.004C252.802 216.063 252.795 216.122 252.777 216.179C252.759 216.235 252.73 216.287 252.691 216.332C252.653 216.377 252.606 216.413 252.553 216.44C252.488 216.477 252.414 216.496 252.339 216.496Z" fill="#263238"/>
<path d="M249.235 208.482L246.446 210.192C245.742 210.625 245.203 211.279 244.912 212.052L242.309 218.839L241.109 223.152C243.898 224.156 248.956 217.574 248.956 217.574L252.136 215.185C252.388 214.994 252.578 214.731 252.681 214.432C252.784 214.132 252.795 213.808 252.712 213.502L251.624 209.449C251.564 209.204 251.447 208.978 251.282 208.787C251.118 208.597 250.91 208.449 250.677 208.354C250.444 208.26 250.191 208.222 249.941 208.244C249.69 208.267 249.448 208.348 249.235 208.482Z" fill="#FFC3BD"/>
<path d="M245.897 263.669L225.063 262.813L219.615 230.785C216.826 214.283 202.536 200.914 187.726 200.914H174.683C159.872 200.914 150.148 214.283 152.955 230.785L156.674 252.894C158.069 261.075 165.153 267.713 172.479 267.713H254.813C254.986 267.689 255.147 267.612 255.274 267.493C255.401 267.373 255.487 267.217 255.521 267.046C255.555 266.875 255.534 266.698 255.462 266.539C255.39 266.38 255.271 266.248 255.12 266.16C252.262 264.674 249.116 263.824 245.897 263.669Z" fill="#ADBCF2"/>
<path d="M250.796 267.005H244.195V265.304H250.796C267.391 265.304 280.9 250.215 280.9 231.667V225.922H282.592V231.667C282.592 251.154 268.33 267.005 250.796 267.005Z" fill="#263238"/>
<path d="M353.66 316.623L365.57 314.094L367.81 328.318L357.862 330.447L353.66 316.623Z" fill="#B55B52"/>
<path opacity="0.2" d="M353.66 316.623L365.579 314.094L366.834 322.061L356.012 324.367L353.66 316.623Z" fill="black"/>
<path d="M360.798 262.41C364.758 243.964 372.949 224.71 365.205 207.139L331.215 207.027C331.215 207.027 333.809 247.423 334.999 264.446C336.245 282.11 354.169 322.245 354.169 322.245L367.789 319.251C367.789 319.251 363.912 282.166 360.798 262.41Z" fill="#263238"/>
<path opacity="0.2" d="M361.152 260.655C363.587 249.982 367.213 239.058 368.162 228.385C355.276 214.328 356.903 242.99 361.152 260.655Z" fill="black"/>
<path d="M370.522 332.269L367.389 332.966L366.459 332.036L365.315 333.403L359.542 335.904C357.427 336.823 355.145 337.298 352.839 337.298H348.097C348.026 336.032 348.289 334.769 348.86 333.635C348.86 333.635 353.434 332.836 355.795 329.033C355.954 328.832 356.16 328.672 356.395 328.568C356.63 328.464 356.887 328.42 357.143 328.438C359.328 328.383 365.074 328.057 367.937 326.179C368.005 326.139 368.081 326.116 368.159 326.11C368.238 326.105 368.316 326.119 368.389 326.149C368.461 326.18 368.525 326.227 368.576 326.288C368.627 326.348 368.663 326.419 368.681 326.495C369.139 328.466 369.755 330.396 370.522 332.269Z" fill="#263238"/>
<path d="M381.254 318.379L393.442 318.5L393.972 332.873L383.792 332.789L381.254 318.379Z" fill="#B55B52"/>
<path opacity="0.2" d="M381.254 318.387L393.452 318.498L393.749 326.55L382.676 326.457L381.254 318.387Z" fill="black"/>
<path d="M394.509 262.41C395.495 243.964 396.834 216.362 390.651 207.883L352.691 207.027C352.691 207.027 363.243 247.423 367.185 264.446C371.276 282.11 381.317 323.946 381.317 323.946H394.491C394.491 323.946 399.465 283.467 394.509 262.41Z" fill="#263238"/>
<path d="M346.396 152.278L345.829 152.78L345.402 153.142L344.574 153.802C344.035 154.211 343.496 154.593 342.947 154.964C341.877 155.697 340.766 156.367 339.619 156.973C337.342 158.193 334.95 159.187 332.479 159.938C331.242 160.319 329.969 160.626 328.695 160.868C327.421 161.11 326.12 161.296 324.818 161.426C322.209 161.671 319.582 161.637 316.981 161.324L315.995 161.203C315.086 161.093 314.214 160.775 313.448 160.273C311.312 158.859 309.403 157.128 307.786 155.141C306.382 153.423 305.138 151.581 304.067 149.637C303.063 147.81 302.187 145.915 301.445 143.966C301.083 143.036 300.767 142.032 300.46 141.056C300.153 140.08 299.939 139.122 299.688 137.988C299.475 137.043 299.573 136.054 299.969 135.169C300.365 134.285 301.037 133.553 301.885 133.083C302.732 132.612 303.709 132.429 304.669 132.561C305.629 132.693 306.52 133.133 307.21 133.814L307.674 134.279C308.214 134.818 308.846 135.534 309.432 136.138C310.017 136.742 310.631 137.421 311.217 138.053C312.416 139.308 313.587 140.526 314.787 141.623C315.888 142.718 317.066 143.734 318.31 144.663C319.248 145.374 320.277 145.956 321.369 146.393L317.845 145.361C319.379 145.256 320.902 145.032 322.401 144.691C323.901 144.335 325.374 143.872 326.808 143.306C328.255 142.714 329.664 142.034 331.028 141.27C331.716 140.889 332.376 140.47 333.018 140.071C333.343 139.866 333.65 139.652 333.948 139.457L334.366 139.169L334.533 139.048H334.598H334.543C336.302 137.477 338.613 136.67 340.968 136.803C343.322 136.937 345.528 138 347.098 139.759C348.669 141.518 349.476 143.83 349.343 146.184C349.21 148.539 348.146 150.744 346.387 152.315L346.396 152.278Z" fill="#B65B52"/>
<path d="M302.135 139.922L305.677 136.203C307.769 131.238 300.917 129.648 300.917 129.648L296.65 126.534C296.098 126.201 295.447 126.074 294.811 126.174C294.175 126.274 293.595 126.596 293.173 127.083L290.681 129.667C290.406 129.91 290.183 130.205 290.022 130.535C289.862 130.865 289.769 131.224 289.747 131.59C289.725 131.956 289.776 132.323 289.897 132.669C290.017 133.016 290.205 133.335 290.448 133.609L294.009 136.854C294.669 137.504 295.481 137.98 296.371 138.239L302.135 139.922Z" fill="#B55B52"/>
<path d="M350.366 131.955C342.129 131.472 330.062 140.946 330.062 140.946C328.918 144.097 331.735 155.821 336.774 160.934C336.774 160.934 342.557 162.31 347.614 156.211C353.118 149.564 359.096 132.457 350.366 131.955Z" fill="#ADBCF2"/>
<path d="M352.003 131.65C363.278 130.582 374.637 130.763 385.872 132.189C387.41 132.417 388.885 132.956 390.208 133.773C391.53 134.591 392.671 135.67 393.562 136.944C394.452 138.219 395.073 139.662 395.386 141.184C395.699 142.707 395.698 144.278 395.383 145.8C390.121 172.315 394.053 201.917 390.651 207.848C390.651 207.848 353.081 208.499 331.15 206.993C325.153 178.172 336.951 160.592 342.873 138.112C343.924 134.309 348.052 132.106 352.003 131.65Z" fill="#ADBCF2"/>
<path d="M398.098 142.6L398.935 143.65L399.678 144.58C400.153 145.212 400.608 145.863 401.054 146.504C401.984 147.787 402.802 149.117 403.62 150.456C405.277 153.187 406.737 156.033 407.99 158.972C409.344 162.076 410.373 165.314 411.058 168.631C411.871 172.36 412.006 176.206 411.458 179.983L411.346 180.745C411.247 181.37 411.036 181.971 410.723 182.521C409.613 184.463 408.37 186.327 407.005 188.099C405.698 189.794 404.299 191.414 402.812 192.952C401.333 194.458 399.818 195.89 398.219 197.238C396.605 198.605 394.907 199.869 393.133 201.022C392.304 201.568 391.318 201.825 390.327 201.753C389.337 201.681 388.398 201.284 387.656 200.624C386.914 199.964 386.411 199.077 386.225 198.102C386.038 197.127 386.179 196.117 386.625 195.23L386.83 194.867C387.63 193.268 388.596 191.567 389.461 189.931C390.326 188.294 391.218 186.658 392.036 185.031C392.854 183.404 393.626 181.796 394.379 180.234C395.132 178.672 395.709 177.091 396.285 175.585L395.551 178.114C395.505 176.248 395.192 174.397 394.621 172.62C394.294 171.559 393.912 170.517 393.477 169.496C393.05 168.436 392.548 167.357 392.018 166.279C390.93 164.131 389.712 161.956 388.373 159.827C387.723 158.748 387.007 157.698 386.319 156.647L385.259 155.095L384.283 153.709L383.957 153.245C382.583 151.36 382.007 149.01 382.352 146.703C382.696 144.396 383.935 142.317 385.8 140.916C387.665 139.516 390.007 138.905 392.318 139.216C394.63 139.528 396.726 140.736 398.154 142.581L398.098 142.6Z" fill="#B65B52"/>
<path d="M388.791 133.043C396.563 135.832 403.889 148.978 403.889 148.978C403.564 153.766 395.94 164.606 390.548 166.977C386.784 163.752 383.996 159.541 382.497 154.817C380.024 146.524 384.793 134.233 388.791 133.043Z" fill="#ADBCF2"/>
<path d="M357.342 133.638C358.086 132.211 359.287 131.075 360.754 130.412C361.306 128.982 361.349 127.406 360.875 125.949L377.535 120.641C376.187 126.154 375.127 130.514 377.182 133.192C373.9 135.2 367.885 138.77 361.377 138.602C354.869 138.435 356.273 135.953 357.342 133.638Z" fill="#B55B52"/>
<path opacity="0.2" d="M361.002 126.469L373.525 125.734C369.611 129.918 363.68 131.489 360.965 129.788C361.264 128.703 361.277 127.56 361.002 126.469Z" fill="black"/>
<path d="M360.965 138.584L363.68 136.297L367.315 138.156C367.315 138.156 364.99 140.341 360.965 138.584Z" fill="#ADBCF2"/>
<path opacity="0.3" d="M360.965 138.584L363.68 136.297L367.315 138.156C367.315 138.156 364.99 140.341 360.965 138.584Z" fill="black"/>
<path d="M370.197 103.395C369.993 98.272 365.047 95.957 360.761 98.6252C356.475 101.293 356.112 109.54 359.264 113.844C362.416 118.149 370.197 103.395 370.197 103.395Z" fill="#F5F5F5"/>
<path d="M380.814 112.199C378.824 119.376 377.299 124.211 372.121 126.526C361.811 131.109 357.246 126.247 356.846 118.66C356.521 111.836 359.83 101.247 368.105 99.7039C376.379 98.1606 382.803 105.012 380.814 112.199Z" fill="#B55B52"/>
<path d="M375.106 108.46C372.884 110.571 372.001 119.905 375.357 119.747C377.643 119.616 379.917 119.324 382.162 118.873C382.162 118.873 386.43 117.255 384.096 110.859C381.762 104.463 375.106 108.46 375.106 108.46Z" fill="#E0E0E0"/>
<path opacity="0.2" d="M369.168 111.325C370.112 111.081 371.113 111.218 371.957 111.706C371.012 111.759 370.065 111.63 369.168 111.325Z" fill="black"/>
<path opacity="0.2" d="M369.074 111.993C369.512 111.969 369.949 112.04 370.356 112.2C370.764 112.361 371.132 112.607 371.436 112.922C370.591 112.786 369.785 112.469 369.074 111.993Z" fill="black"/>
<path opacity="0.2" d="M362.844 103.758C365.199 103.747 367.548 103.984 369.854 104.465C365.94 104.186 362.844 103.758 362.844 103.758Z" fill="black"/>
<path opacity="0.2" d="M361.73 104.371C361.73 104.371 367.086 104.957 369.568 106.11C366.921 105.699 364.303 105.118 361.73 104.371Z" fill="black"/>
<path d="M382.295 120.604C381.618 121.332 380.804 121.919 379.899 122.332C378.995 122.745 378.018 122.976 377.024 123.012C374.356 123.077 373.649 120.529 374.913 118.363C376.057 116.401 378.818 114.003 381.235 114.979C381.758 115.199 382.218 115.544 382.575 115.986C382.931 116.427 383.172 116.949 383.277 117.506C383.382 118.064 383.348 118.638 383.176 119.179C383.005 119.719 382.702 120.209 382.295 120.604Z" fill="#B55B52"/>
<path d="M366.806 111.224C366.921 110.582 366.674 110.001 366.255 109.925C365.836 109.85 365.402 110.309 365.287 110.951C365.172 111.593 365.418 112.174 365.838 112.25C366.257 112.325 366.691 111.866 366.806 111.224Z" fill="#263238"/>
<path d="M360.165 110.18C360.054 110.812 359.617 111.268 359.236 111.184C358.855 111.101 358.576 110.524 358.696 109.883C358.817 109.241 359.245 108.786 359.626 108.869C360.007 108.953 360.286 109.539 360.165 110.18Z" fill="#263238"/>
<path d="M362.277 111.094L361.347 116.486C360.701 116.496 360.058 116.405 359.441 116.216C359.319 116.171 359.211 116.094 359.13 115.992C359.048 115.89 358.996 115.768 358.979 115.639C358.962 115.51 358.98 115.379 359.032 115.259C359.084 115.14 359.167 115.037 359.274 114.961C360.515 113.878 361.534 112.565 362.277 111.094Z" fill="#A02724"/>
<path d="M370.56 110.053C370.62 110.074 370.686 110.074 370.746 110.053C370.791 110.031 370.832 110 370.865 109.963C370.898 109.925 370.924 109.881 370.939 109.833C370.955 109.785 370.961 109.735 370.956 109.684C370.952 109.634 370.937 109.586 370.913 109.541C370.654 108.986 370.265 108.502 369.78 108.128C369.295 107.755 368.727 107.503 368.124 107.394C368.074 107.387 368.023 107.391 367.975 107.404C367.926 107.418 367.88 107.44 367.84 107.472C367.801 107.503 367.767 107.542 367.743 107.586C367.718 107.63 367.702 107.678 367.697 107.728C367.688 107.829 367.718 107.929 367.78 108.008C367.842 108.087 367.932 108.14 368.031 108.156C368.504 108.252 368.947 108.457 369.325 108.756C369.702 109.055 370.005 109.439 370.207 109.876C370.242 109.937 370.295 109.985 370.357 110.017C370.42 110.048 370.49 110.061 370.56 110.053Z" fill="#263238"/>
<path d="M357.943 107.961C358.005 107.971 358.068 107.966 358.128 107.946C358.188 107.927 358.242 107.894 358.287 107.849C358.604 107.49 359.002 107.211 359.448 107.037C359.895 106.862 360.376 106.796 360.853 106.845C360.951 106.862 361.052 106.839 361.134 106.781C361.216 106.724 361.272 106.637 361.29 106.538C361.306 106.439 361.284 106.337 361.226 106.254C361.169 106.17 361.082 106.112 360.983 106.092C360.382 106.022 359.773 106.096 359.207 106.31C358.64 106.523 358.134 106.87 357.729 107.319C357.692 107.354 357.663 107.396 357.643 107.442C357.624 107.489 357.613 107.539 357.613 107.589C357.613 107.639 357.624 107.689 357.643 107.736C357.663 107.782 357.692 107.824 357.729 107.859C357.785 107.918 357.861 107.954 357.943 107.961Z" fill="#263238"/>
<path d="M376.063 129.473C376.063 129.473 370.68 135.981 363.68 136.334C367.752 138.268 368.44 142.842 368.44 142.842C368.44 142.842 377.188 140.183 378.834 130.877C378.516 130.44 378.099 130.085 377.618 129.841C377.136 129.597 376.603 129.471 376.063 129.473Z" fill="white"/>
<path d="M360.965 138.586L357.897 135.797L353.992 136.959C353.992 136.959 356.939 140.343 360.965 138.586Z" fill="#ADBCF2"/>
<path opacity="0.3" d="M360.965 138.586L357.897 135.797L353.992 136.959C353.992 136.959 356.939 140.343 360.965 138.586Z" fill="black"/>
<path d="M360.799 130.411C360.799 130.411 358.075 133.562 357.944 135.84C354.672 136.77 353.091 141.567 353.091 141.567C353.091 141.567 352.496 134.697 357.638 130.996C358.609 130.49 359.71 130.286 360.799 130.411Z" fill="white"/>
<path d="M395.701 337.327H393.052L392.336 336.248L390.941 337.336H374.95C374.855 336.076 375.092 334.813 375.638 333.673C375.638 333.673 380.417 333.236 382.258 330.884C382.322 330.792 382.411 330.72 382.515 330.677C382.619 330.634 382.733 330.622 382.844 330.642C384.443 330.977 390.765 332.176 394.242 330.921C394.328 330.887 394.421 330.874 394.514 330.883C394.606 330.892 394.695 330.924 394.773 330.975C394.85 331.026 394.915 331.095 394.96 331.177C395.005 331.258 395.03 331.349 395.032 331.442C395.102 333.418 395.326 335.385 395.701 337.327Z" fill="#263238"/>
<path d="M361.114 141.012C361.868 139.84 362.258 138.595 361.412 138.037C360.808 137.646 358.995 137.107 358.623 138.325C358.251 139.543 358.297 140.584 358.809 141.114C358.962 141.268 359.146 141.388 359.348 141.467C359.551 141.546 359.767 141.581 359.984 141.572C360.201 141.562 360.414 141.507 360.608 141.411C360.803 141.315 360.975 141.179 361.114 141.012Z" fill="#263238"/>
<path d="M361.496 138.297C363.077 136.103 367.725 135.322 367.725 137.126C367.725 140.594 367.614 144.099 366.126 144.917C364.639 145.735 362.296 140.37 361.152 140.268L361.496 138.297Z" fill="#263238"/>
<path d="M358.939 138.157C358.01 135.842 355.062 135.024 354.579 136.744C353.649 140.044 353.519 142.778 354.579 143.726C355.639 144.674 357.963 140.137 358.902 140.174L358.939 138.157Z" fill="#263238"/>
<path d="M306.995 135.061C308.167 130.812 305.201 128.181 303.555 125.429C303.267 124.964 301.845 125.215 301.77 126.201C301.676 126.801 301.704 127.414 301.853 128.004C302.002 128.593 302.268 129.147 302.635 129.631C301.77 130.71 300.487 134.484 303.5 136.939C304.856 136.762 306.1 136.094 306.995 135.061Z" fill="#B55B52"/>
<path d="M387.5 132.354C387.088 132.098 386.629 131.927 386.15 131.852C385.671 131.777 385.181 131.799 384.711 131.917C381.81 135.255 369.213 159.548 374.391 204.573H377.339C372.132 159.538 384.599 135.692 387.5 132.354Z" fill="white"/>
<path d="M377.616 208.257L377.356 204.938C377.335 204.762 377.246 204.602 377.109 204.491C376.972 204.38 376.797 204.327 376.621 204.343L375.199 204.417C375.025 204.424 374.862 204.5 374.744 204.627C374.625 204.754 374.562 204.922 374.567 205.096L374.827 208.424C374.85 208.598 374.939 208.757 375.076 208.868C375.212 208.978 375.386 209.032 375.561 209.019L376.984 208.935C377.07 208.933 377.155 208.913 377.234 208.878C377.312 208.842 377.383 208.791 377.442 208.728C377.501 208.665 377.547 208.591 377.576 208.51C377.606 208.429 377.62 208.343 377.616 208.257Z" fill="white"/>
<path d="M377.681 206.125H374.501C374.331 206.12 374.168 206.057 374.038 205.948C373.908 205.838 373.819 205.687 373.785 205.52L373.581 204.238C373.565 204.163 373.567 204.086 373.586 204.012C373.604 203.938 373.64 203.869 373.689 203.811C373.738 203.752 373.8 203.706 373.87 203.675C373.94 203.645 374.016 203.63 374.092 203.633H377.272C377.441 203.639 377.603 203.702 377.731 203.811C377.86 203.921 377.947 204.071 377.978 204.238L378.192 205.52C378.208 205.595 378.206 205.672 378.187 205.746C378.169 205.82 378.133 205.889 378.084 205.947C378.035 206.006 377.973 206.052 377.903 206.083C377.833 206.113 377.757 206.128 377.681 206.125Z" fill="#263238"/>
<path d="M352.777 131.647C352.228 131.21 350.499 131.461 349.634 131.954C346.594 135.292 332.9 159.585 336.098 204.61H339.045C335.856 159.538 349.737 134.948 352.777 131.647Z" fill="white"/>
<path d="M339.183 208.257L339.072 204.938C339.066 204.852 339.043 204.768 339.004 204.691C338.965 204.614 338.911 204.546 338.845 204.491C338.779 204.435 338.703 204.393 338.62 204.368C338.538 204.343 338.451 204.334 338.365 204.343L336.934 204.418C336.758 204.427 336.593 204.502 336.471 204.628C336.348 204.754 336.278 204.921 336.273 205.096L336.385 208.425C336.402 208.597 336.485 208.755 336.617 208.866C336.749 208.978 336.919 209.033 337.092 209.02L338.523 208.936C338.699 208.929 338.866 208.855 338.989 208.728C339.111 208.602 339.181 208.433 339.183 208.257Z" fill="white"/>
<path d="M339.342 206.129H336.162C335.995 206.124 335.835 206.061 335.709 205.951C335.583 205.84 335.5 205.689 335.474 205.524L335.326 204.241C335.315 204.165 335.321 204.087 335.343 204.013C335.365 203.939 335.403 203.871 335.455 203.814C335.506 203.756 335.569 203.711 335.64 203.68C335.711 203.65 335.788 203.635 335.865 203.637H339.044C339.212 203.641 339.372 203.704 339.498 203.815C339.623 203.925 339.706 204.076 339.732 204.241L339.881 205.524C339.892 205.601 339.886 205.678 339.864 205.752C339.841 205.826 339.803 205.894 339.752 205.952C339.7 206.009 339.637 206.055 339.566 206.085C339.496 206.116 339.419 206.131 339.342 206.129Z" fill="#263238"/>
<path d="M368.999 93.8191C365.392 90.9463 359.414 98.6256 367.307 102.893C377.199 108.248 376.009 116.894 388.802 114.365C383.326 110.526 386.803 107.597 384.488 102.056C381.904 95.8365 374.847 98.4676 368.999 93.8191Z" fill="#F5F5F5"/>
<path d="M363.496 98.4219C364.668 102.717 366.09 103.721 367.41 104.846C366.486 103.368 365.823 101.742 365.448 100.04L363.496 98.4219Z" fill="#F5F5F5"/>
<path d="M358.214 118.465C358.214 118.465 361.003 118.251 368.543 119.395C367.325 121.533 365.4 123.114 361.533 122.528C361.04 122.501 360.558 122.371 360.118 122.148C359.678 121.924 359.289 121.611 358.977 121.229C358.665 120.846 358.435 120.403 358.304 119.927C358.173 119.451 358.142 118.953 358.214 118.465Z" fill="#263238"/>
<path d="M363.59 120.986C362.117 120.68 360.584 120.845 359.211 121.46C359.858 122.036 360.666 122.399 361.526 122.501C362.996 122.811 364.526 122.645 365.895 122.027C365.257 121.444 364.449 121.079 363.59 120.986Z" fill="#A02724"/>
<path d="M358.566 118.457C358.6 118.746 358.712 119.02 358.891 119.25C359.07 119.479 359.308 119.655 359.58 119.759C361.82 120.086 364.084 120.23 366.348 120.186C366.705 120.205 367.061 120.136 367.385 119.986C367.71 119.835 367.992 119.607 368.207 119.322C365.021 118.786 361.798 118.497 358.566 118.457Z" fill="white"/>
<path d="M358.055 123.999C358.129 126.016 360.156 127.718 359.626 128.982C362.132 129.172 364.638 128.608 366.822 127.364C366.984 127.244 367.108 127.078 367.178 126.888C367.248 126.698 367.261 126.492 367.216 126.295C367.171 126.097 367.069 125.918 366.923 125.777C366.777 125.637 366.593 125.542 366.394 125.505C364.8 125.347 363.272 124.791 361.95 123.887C361.782 123.746 361.57 123.668 361.35 123.668C361.131 123.668 360.919 123.746 360.751 123.887C359.152 125.142 358.055 123.999 358.055 123.999Z" fill="#F5F5F5"/>
<path d="M392.649 207.847L345.457 174.964L345.978 174.211L393.625 206.425L392.649 207.847Z" fill="#263238"/>
<path d="M388.577 194.328L393.152 196.643C396.796 200.622 390.864 204.415 390.864 204.415L388.754 207.39C388.349 207.892 387.778 208.233 387.145 208.352C386.511 208.471 385.855 208.361 385.296 208.041L382.079 206.442C381.738 206.304 381.428 206.1 381.167 205.842C380.905 205.584 380.697 205.277 380.554 204.939C380.412 204.6 380.338 204.237 380.336 203.869C380.334 203.502 380.405 203.138 380.545 202.798L381.939 199.943C382.341 199.108 382.945 198.386 383.696 197.842L388.577 194.328Z" fill="#B55B52"/>
</svg>
